<svg xmlns="http://www.w3.org/2000/svg" shape-rendering="geometricPrecision" text-rendering="geometricPrecision" image-rendering="optimizeQuality" fill-rule="evenodd" clip-rule="evenodd" viewBox="0 0 441 511.452"><path fill="#D4453B" fill-rule="nonzero" d="M56.182 129.718h328.624c9.555 0 16.585 7.406 17.773 16.598l37.932 292.462a56.712 56.712 0 01-.259 16.616c-4.346 26.277-26.198 46.354-51.297 53.317-6.419 1.781-13.045 2.741-19.65 2.741H71.683c-10.888 0-21.65-2.588-31.392-7.152-17.365-8.131-31.942-22.855-37.714-41.372C.213 455.342-.615 447.216.472 438.82c12.642-97.494 25.748-195.008 37.939-292.546 1.181-9.147 8.242-16.556 17.771-16.556z"/><path fill="#FB5541" d="M56.182 140.109h328.624c4.131 0 6.982 3.458 7.505 7.506l9.752 75.201 20.253 156.157 4.346 33.489H14.326l4.435-34.199 20.145-155.319 9.768-75.329c.534-4.095 3.377-7.506 7.508-7.506z"/><path fill="#333" d="M125.352 177.881c14.969 0 27.109 12.137 27.109 27.109 0 14.97-12.14 27.109-27.109 27.109-14.973 0-27.109-12.139-27.109-27.109 0-14.972 12.136-27.109 27.109-27.109zM314.32 177.881c14.972 0 27.109 12.137 27.109 27.109 0 14.97-12.137 27.109-27.109 27.109-14.97 0-27.109-12.139-27.109-27.109 0-14.972 12.139-27.109 27.109-27.109z"/><path fill="#C9D1D1" fill-rule="nonzero" d="M138.58 194.416c0 7.255-5.885 13.14-13.139 13.14-7.255 0-13.14-5.885-13.14-13.14v-86.61c0-29.657 12.127-56.614 31.659-76.147C163.493 12.126 190.45 0 220.107 0c29.653 0 56.611 12.126 76.143 31.662 19.536 19.533 31.662 46.49 31.662 76.144v85.984c0 7.255-5.885 13.14-13.14 13.14-7.254 0-13.139-5.885-13.139-13.14v-85.984c0-22.405-9.179-42.788-23.96-57.567-14.778-14.781-35.162-23.96-57.566-23.96-22.408 0-42.789 9.177-57.57 23.958-14.781 14.781-23.957 35.161-23.957 57.569v86.61z"/><path fill="#BFC7C7" fill-rule="nonzero" d="M138.58 194.416c0 7.255-5.885 13.14-13.139 13.14v-99.75c0-52.067 42.599-94.666 94.666-94.666 52.061 0 94.665 42.61 94.665 94.666v99.124c-7.254 0-13.139-5.885-13.139-13.14v-85.984c0-22.405-9.179-42.788-23.96-57.567-14.778-14.781-35.162-23.96-57.566-23.96-22.408 0-42.789 9.177-57.57 23.958-14.781 14.781-23.957 35.161-23.957 57.569v86.61z"/></svg>